<svg xmlns="http://www.w3.org/2000/svg" width="1146.318" height="801.004" data-name="Layer 1"><path fill="#aa0f00" d="M1023.858 465.01a456.25 456.25 0 0 1-37.38-261.87c3.6-23.1 9.44-46.85 24.43-64.79 14.39-17.23 39.35-27.37 60.03-19.29-13.57-29.61-47.76-46.5-80.59-47.33-34.09-.86-66.92 12.5-97.25 28.1-30.33 15.6-59.65 33.81-92.21 43.99-53.5 16.72-111.91 10.34-165.5-6.09-53.58-16.44-103.62-42.47-154.62-65.71-51.01-23.24-104.17-44.03-160.01-48.91-55.84-4.87-115.25 7.89-157.24 45.01s-61.87 101.28-38.27 152.11c14.25 30.7 42.22 54.32 52.04 86.7 12.32 40.65-7.08 83.96-30.41 119.45-23.34 35.49-51.8 69.58-60.47 111.16-8.01 38.38 2.72 78.02 24.05 111.38a197.345 197.345 0 0 0 35.74 41.61c43.09 37.91 98.77 58.15 154.17 73.13 200.27 54.17 416.13 49.29 613.75-13.88 34.99-11.18 69.95-24.43 99.32-46.48 19.16-14.38 35.83-33.02 46.39-54.35a114.106 114.106 0 0 0 11.13-36.18c6.64-52.09-24.83-100.21-47.1-147.76Z"/><path fill="#fff" d="M863.91 196.953c9.641-4.204-9.912-6.65-32.096-7.456s-49.021-.76-63.198-3.048c-13.711-2.214-12.7-6.15-13.854-9.715s-6.425-7.222-27.82-8.015c-26.66-.988-70.625 2.814-90.751.532-18.781-2.13-7.617-8.812-35.004-9.068-15.638-.146-35.785 2.057-53.185 2.589-16.337.499-28.423-.535-36.904-1.924s-14.389-3.152-23.934-4.379c-25.06-3.222-74.091-2.14-117.853 1.99s-81.274 10.899-102.429 17.603-27 13.303-22.072 18.9c3.146 3.574 11.199 6.916 30.732 8.352 36.535 2.686 101.584-1.937 139.337.507 21.042 1.362 30.376 4.739 48.838 6.587 19.834 1.985 48.87 2.09 77.397 2.043 59.397-.098 120.313-.708 182.43-1.827 25.945-.468 53.13-1.075 80.737-3.303s55.767-6.526 61.591-10.555" opacity=".17"/><path fill="#aa0f00" d="M1072.418 122.55c-.46-1.18-.96-2.35-1.48-3.49.84.33 1.68.69 2.51 1.08Z"/><path fill="#f2f2f2" d="M621.904 265.086c-7.67-12.684-16.757-26.228-30.99-30.37-16.482-4.796-33.413 4.733-47.774 14.135a1392.157 1392.157 0 0 0-123.894 91.283l.044.493 92.45-6.376c22.266-1.535 45.296-3.283 64.973-13.816 7.466-3.996 14.744-9.335 23.205-9.707 10.512-.463 19.677 6.879 26.88 14.549 42.608 45.37 54.937 114.754 102.738 154.616a1516.995 1516.995 0 0 0-107.632-214.807Z"/><path fill="#e4e4e4" d="M883.805 649.915c-4.712-5.95-6.637-7.343-11.285-13.348q-56.764-73.416-106.708-151.792-33.923-53.23-64.482-108.505-14.549-26.278-28.3-52.969-10.67-20.695-20.865-41.638a842.15 842.15 0 0 1-5.71-12.009c-4.429-9.442-8.774-18.93-13.44-28.244-5.317-10.616-11.79-21.745-21.553-28.877a29.405 29.405 0 0 0-15.318-5.895c-7.948-.513-15.282 2.769-22.176 6.353-50.439 26.301-97.66 59.276-140.37 96.798A730.778 730.778 0 0 0 319.557 436.38c-1.008 1.44-3.392.064-2.375-1.384q6.01-8.498 12.257-16.813a734.817 734.817 0 0 1 187.6-174.986q18.248-11.825 37.183-22.542c6.362-3.603 12.751-7.16 19.25-10.497 6.372-3.272 13.138-6.215 20.417-6.325 24.77-.385 37.595 27.667 46.405 46.542q4.152 8.911 8.406 17.767 16.075 33.62 33.387 66.628 10.685 20.379 21.837 40.52 34.707 62.717 73.779 122.896c34.506 53.143 68.736 100.089 108.045 149.785 1.082 1.375-.852 3.337-1.943 1.944ZM431.15 295.937c-1.439-1.604-2.869-3.209-4.317-4.813-11.423-12.632-23.68-25.118-39.365-32.36a57.11 57.11 0 0 0-23.927-5.547c-8.562.028-16.931 2.274-24.843 5.418-3.74 1.494-7.398 3.19-11 4.996-4.117 2.072-8.16 4.282-12.184 6.51q-11.331 6.27-22.368 13.09-21.96 13.572-42.546 29.216-10.67 8.113-20.901 16.758-9.516 8.03-18.647 16.492c-1.301 1.201-3.245-.742-1.943-1.943a441.246 441.246 0 0 1 4.85-4.446q6.875-6.216 13.97-12.193 12.94-10.918 26.55-20.993 21.162-15.676 43.782-29.226 11.304-6.765 22.918-12.962a198.743 198.743 0 0 1 7.096-3.621 113.114 113.114 0 0 1 16.868-6.867 60.006 60.006 0 0 1 25.476-2.502 66.327 66.327 0 0 1 23.505 8.131c15.4 8.608 27.346 21.92 38.97 34.91 1.174 1.32-.761 3.272-1.944 1.952Z"/><path fill="#e4e4e4" d="m746.71 426.844 36.905-13.498 18.324-6.702c5.967-2.183 11.92-4.667 18.09-6.23a28.539 28.539 0 0 1 16.373.208 37.737 37.737 0 0 1 12.771 7.917 103.639 103.639 0 0 1 10.475 11.186c3.99 4.795 7.92 9.64 11.868 14.468q24.441 29.89 48.563 60.04 24.121 30.15 47.92 60.557 23.856 30.48 47.385 61.216 2.882 3.765 5.76 7.534c1.06 1.388 3.45.02 2.374-1.388q-23.702-31.045-47.734-61.835-24.092-30.864-48.517-61.466-24.424-30.601-49.178-60.937-6.167-7.558-12.355-15.099c-3.48-4.24-6.92-8.527-10.736-12.474-7.006-7.245-15.758-13.648-26.235-13.822-6.16-.102-12.12 1.853-17.844 3.923-6.17 2.232-12.324 4.506-18.486 6.76l-37.163 13.592-9.29 3.398c-1.65.603-.937 3.262.73 2.652Z"/><path fill="#f2f2f2" d="M382.612 274.66c-18.754-9.64-42.772-7.752-60.005 4.29a855.845 855.845 0 0 1 97.37 22.726c-13.282-7.784-23.673-19.98-37.365-27.017ZM322.422 278.917l-3.61 2.935a53.444 53.444 0 0 1 3.795-2.902c-.062-.01-.123-.022-.185-.033ZM847.784 426.979c-3.633-4.422-7.561-9.052-12.995-10.849l-5.073.2a575.436 575.436 0 0 0 153.268 175.221l-135.2-164.572Z"/><path fill="#3f3d56" d="M1059.828 648.95c-10.56 21.33-27.23 39.97-46.39 54.35-29.37 22.05-64.33 35.3-99.32 46.48-197.62 63.17-413.48 68.05-613.75 13.88-55.4-14.98-111.08-35.22-154.17-73.13a197.345 197.345 0 0 1-35.74-41.61c57.35-31.52 126.86-43.4 193.19-41.95 95.09 2.08 187.96 27.46 282.16 40.59a1102.669 1102.669 0 0 0 334.04-4.6c38.32-6.43 77.98-14.84 115.49-4.66a95.15 95.15 0 0 1 24.49 10.65Z"/><circle cx="179.318" cy="51" r="51" fill="#ccc"/><path fill="#f0f0f0" d="M335.468 48.342c-13.497-14.159-29.172-27.075-47.73-33.9a76.715 76.715 0 0 0-15.986-4.018c-.043-.006-.085.003-.129 0a2.356 2.356 0 0 0-.27-.054 61.539 61.539 0 0 0-22.84 1.38 63.107 63.107 0 0 0-10.636 3.704 93.005 93.005 0 0 0-9.98 5.656 64.908 64.908 0 0 1-22.052 8.227 74.188 74.188 0 0 1-11.844 1.162c-3.447.07-6.698.189-9.964 1.434a23.916 23.916 0 0 0-14.565 15.77 1.55 1.55 0 0 0 .69 1.695c.883.633 1.745 1.35 2.673 1.914a8.34 8.34 0 0 0 2.61.712q2.214.467 4.434.907 8.176 1.62 16.42 2.868 16.68 2.525 33.541 3.558a373.481 373.481 0 0 0 67.51-2.03 374.771 374.771 0 0 0 37.456-6.478 1.514 1.514 0 0 0 .662-2.507ZM181.739 82.441a76.715 76.715 0 0 0-15.987-4.017c-.043-.006-.085.003-.129 0a2.356 2.356 0 0 0-.27-.054 61.539 61.539 0 0 0-22.84 1.38 63.107 63.107 0 0 0-10.636 3.704 93.005 93.005 0 0 0-9.98 5.656 64.908 64.908 0 0 1-22.052 8.227 74.188 74.188 0 0 1-11.844 1.162c-3.447.07-6.698.189-9.964 1.434a23.916 23.916 0 0 0-14.565 15.77 1.55 1.55 0 0 0 .69 1.695c.883.633 1.745 1.35 2.673 1.914a8.34 8.34 0 0 0 2.61.712q2.214.467 4.434.907 8.176 1.62 16.42 2.868 16.68 2.525 33.541 3.558a373.481 373.481 0 0 0 67.51-2.03 374.771 374.771 0 0 0 37.456-6.478 1.514 1.514 0 0 0 .662-2.507c-13.497-14.159-29.172-27.075-47.73-33.9Z"/><path fill="#2f2e41" d="m1047.411 588.142 27.165-20.624 13.24 13.241-44.253 30.283 3.848-22.9z"/><path fill="#2f2e41" d="M1022.075 644.93h-92.923l3.259-10.56c20.2-7.313 8.853-23.03 28.067-32.637 46.997-23.498 65.192-93.62 58.31-121.34l30.798-1.301s42.532 120.785-27.51 165.838Z"/><path fill="#3f3d56" d="M1101.406 595.29a15.619 15.619 0 0 1-20.183.378l-.06-.05-.003-.077a14.965 14.965 0 0 0-.6-3.82 10.69 10.69 0 0 1-.388 2.644l-.078.29-.208-.215a15.79 15.79 0 0 1-.519-.561 15.75 15.75 0 0 1-2.399-3.633 45.916 45.916 0 0 0-12.74-15.88 22.292 22.292 0 0 1-2.673-2.571 22.034 22.034 0 0 1 27.67-33.57l.138.081-.072.143a11.478 11.478 0 0 1-2.048 2.954 14.968 14.968 0 0 0 3.154-2.28l.1-.093.114.078a22.128 22.128 0 0 1 4.03 3.586l.128.148a9.836 9.836 0 0 0 7.283 3.36 15.614 15.614 0 0 1 15.12 18.294l-.018.103-.1.03a13.399 13.399 0 0 1-5.457.681 15.222 15.222 0 0 0 4.86 1.218l.217.017-.069.206a15.604 15.604 0 0 1-4.503 6.79l-.06.052-.062.055a15.333 15.333 0 0 0-5.297 10.643 15.733 15.733 0 0 1-5.277 11Z"/><path d="M1104.248 590.271a15.574 15.574 0 0 1-.175 1.68 15.785 15.785 0 0 0 2.537-7.821c.021-.427.066-.851.126-1.274a14.814 14.814 0 0 0-2.488 7.415ZM1109.162 571.29a15.198 15.198 0 0 0 3.885 1.099 15.63 15.63 0 0 0 1.423-1.736 13.244 13.244 0 0 1-5.308.638ZM1114.887 566.163a15.71 15.71 0 0 1-.112 4.052 15.53 15.53 0 0 0 1.758-3.625l.069-.206-.217-.017a15.095 15.095 0 0 1-1.498-.204ZM1113.442 551.341a15.65 15.65 0 0 0-11.462-5.3 9.836 9.836 0 0 1-7.284-3.36l-.128-.148a22.128 22.128 0 0 0-4.03-3.586l-.113-.078-.1.094a14.968 14.968 0 0 1-3.154 2.279 11.478 11.478 0 0 0 2.048-2.954l.071-.143-.137-.08a22.018 22.018 0 0 0-32.621 14.254 22.022 22.022 0 0 1 30.259-8.113l.137.08-.071.143a11.478 11.478 0 0 1-2.048 2.954 14.968 14.968 0 0 0 3.154-2.279l.1-.094.113.078a22.129 22.129 0 0 1 4.03 3.587l.128.147a9.836 9.836 0 0 0 7.284 3.361 15.617 15.617 0 0 1 15.103 12.835 18.927 18.927 0 0 0 2.26-.55l.1-.03.019-.103a15.554 15.554 0 0 0-3.658-12.994Z" opacity=".15"/><path fill="#3f3d56" d="M1146.318 487.042a50.291 50.291 0 0 1-42.007 49.6l-.248.04-.192-.16a48.186 48.186 0 0 0-10.51-6.671 34.423 34.423 0 0 1 5.566 6.56l.535.805-.965.046c-.832.041-1.66.061-2.459.061a50.716 50.716 0 0 1-13.884-1.925c-20.518-5.837-42.55-6.836-65.486-2.967a71.779 71.779 0 0 1-11.902.993 70.948 70.948 0 0 1-22.32-138.285l.488-.161.192.475a36.957 36.957 0 0 1 2.787 11.234 48.196 48.196 0 0 0 1.198-12.472l-.015-.442.43-.108a71.25 71.25 0 0 1 17.24-2.115l.63.003a31.672 31.672 0 0 0 23.616-10.462 50.276 50.276 0 0 1 76.38 2.346l.212.262-.14.307c-2.938 6.475-6.138 11.192-9.959 14.641a49.013 49.013 0 0 0 13.28-9.162l.502-.487.352.604a50.242 50.242 0 0 1 6.84 25.328v.253l-.001.27c0 13.613 5.264 26.515 14.467 35.439a50.66 50.66 0 0 1 15.373 36.15Z"/><g opacity=".15"><path d="M1084.848 368.219a35.519 35.519 0 0 1-6.335 7.772 48.89 48.89 0 0 0 9.898-6.187q-1.75-.862-3.563-1.585ZM1113.952 428.235a50.482 50.482 0 0 1 7.23 8.808 51.393 51.393 0 0 1-4.704-21.59v-.27l.001-.253a50.242 50.242 0 0 0-6.84-25.328l-.352-.604-.502.487a49.126 49.126 0 0 1-9.17 6.983 48.972 48.972 0 0 0 14.337 31.767ZM1099.486 392.273v.523c0 .493.008.986.022 1.477a52.365 52.365 0 0 0 5.956-10.267l.14-.307-.212-.262a50.688 50.688 0 0 0-9.096-8.798 50.356 50.356 0 0 1 3.19 17.634ZM1130.945 450.892a45.46 45.46 0 0 1-6.409-7.797 50.23 50.23 0 0 1-37.217 70.89l-.249.04-.192-.16a48.188 48.188 0 0 0-10.51-6.671 34.423 34.423 0 0 1 5.566 6.56l.536.805-.965.047c-.833.04-1.66.06-2.46.06a50.715 50.715 0 0 1-13.884-1.925c-20.517-5.837-42.55-6.835-65.486-2.967a71.78 71.78 0 0 1-11.901.993 70.624 70.624 0 0 1-47.12-17.969 71.011 71.011 0 0 0 64.113 40.626 71.78 71.78 0 0 0 11.901-.993c22.935-3.868 44.968-2.87 65.486 2.967a50.715 50.715 0 0 0 13.884 1.925c.799 0 1.627-.02 2.46-.06l.964-.047-.535-.805a34.423 34.423 0 0 0-5.566-6.56 48.188 48.188 0 0 1 10.51 6.672l.192.16.248-.04a50.254 50.254 0 0 0 26.634-85.751Z"/></g><path fill="#2f2e41" d="m134.035 560.973-36.812-27.948-17.943 17.943 59.97 41.039-5.215-31.034z"/><path fill="#2f2e41" d="M168.37 637.93h125.926l-4.417-14.31c-27.373-9.91-11.998-31.21-38.036-44.229-63.688-31.844-88.344-126.87-79.018-164.434l-41.737-1.765S73.45 576.875 168.37 637.93Z"/><path fill="#3f3d56" d="M53.713 555.754a20.779 20.779 0 0 0-7.179-14.423l-.085-.074-.08-.07a21.145 21.145 0 0 1-6.103-9.202l-.093-.28.293-.023a20.628 20.628 0 0 0 6.587-1.65 18.157 18.157 0 0 1-7.395-.922l-.136-.041-.024-.14a21.16 21.16 0 0 1 20.49-24.79 13.33 13.33 0 0 0 9.87-4.555l.174-.2a29.987 29.987 0 0 1 5.46-4.86l.154-.106.136.128a20.285 20.285 0 0 0 4.274 3.088 15.554 15.554 0 0 1-2.775-4.003l-.097-.194.187-.109a29.86 29.86 0 0 1 37.496 45.492 30.209 30.209 0 0 1-3.622 3.485 62.224 62.224 0 0 0-17.264 21.52 21.344 21.344 0 0 1-3.251 4.922c-.222.253-.459.509-.703.76l-.283.293-.106-.393a14.487 14.487 0 0 1-.526-3.583A20.28 20.28 0 0 0 88.3 571l-.002.105-.082.068a21.15 21.15 0 0 1-34.502-15.419Z"/><path d="M57.012 563.859a21.104 21.104 0 0 0 .238 2.275 21.392 21.392 0 0 1-3.44-10.598 18.758 18.758 0 0 0-.17-1.727 20.076 20.076 0 0 1 3.372 10.05ZM50.352 538.137a20.597 20.597 0 0 1-5.264 1.488 21.18 21.18 0 0 1-1.928-2.353 17.947 17.947 0 0 0 7.192.865ZM42.595 531.188a21.289 21.289 0 0 0 .15 5.49 21.044 21.044 0 0 1-2.381-4.911l-.093-.28.293-.023a20.452 20.452 0 0 0 2.031-.276ZM44.553 511.103a21.21 21.21 0 0 1 15.532-7.182 13.33 13.33 0 0 0 9.871-4.555l.174-.2a29.987 29.987 0 0 1 5.46-4.86l.154-.106.136.128a20.284 20.284 0 0 0 4.274 3.088 15.555 15.555 0 0 1-2.775-4.004l-.097-.193.186-.109a29.838 29.838 0 0 1 44.207 19.317 29.843 29.843 0 0 0-41.005-10.994l-.187.109.097.193a15.555 15.555 0 0 0 2.775 4.003 20.284 20.284 0 0 1-4.274-3.088l-.136-.128-.153.106a29.987 29.987 0 0 0-5.46 4.86l-.175.2a13.33 13.33 0 0 1-9.87 4.556 21.163 21.163 0 0 0-20.468 17.393 25.648 25.648 0 0 1-3.063-.745l-.136-.042-.024-.14a21.078 21.078 0 0 1 4.957-17.607Z" opacity=".15"/><path fill="#3f3d56" d="M20.834 374.977c12.47-12.093 19.605-29.578 19.605-48.026l-.001-.365-.001-.344a68.086 68.086 0 0 1 9.269-34.322l.477-.82.68.66a66.421 66.421 0 0 0 17.997 12.417c-5.177-4.674-9.514-11.067-13.495-19.841l-.19-.416.287-.356a68.132 68.132 0 0 1 103.507-3.179 42.921 42.921 0 0 0 32.004 14.178l.853-.003a96.555 96.555 0 0 1 23.363 2.865l.583.147-.02.6a65.313 65.313 0 0 0 1.623 16.9 50.082 50.082 0 0 1 3.777-15.223l.26-.645.661.219a96.146 96.146 0 0 1-30.247 187.398 97.272 97.272 0 0 1-16.129-1.345c-31.081-5.243-60.94-3.89-88.744 4.02a68.728 68.728 0 0 1-18.815 2.61c-1.083 0-2.204-.028-3.333-.083l-1.307-.063.725-1.09a46.65 46.65 0 0 1 7.543-8.89 65.3 65.3 0 0 0-14.243 9.04l-.26.217-.337-.055a68.102 68.102 0 0 1-36.092-116.205Z"/><g opacity=".15"><path d="M83.302 262.942a48.134 48.134 0 0 0 8.586 10.532 66.253 66.253 0 0 1-13.414-8.384q2.37-1.168 4.828-2.148ZM43.861 344.273a68.411 68.411 0 0 0-9.797 11.936 69.646 69.646 0 0 0 6.375-29.258l-.001-.365-.001-.344a68.087 68.087 0 0 1 9.269-34.322l.477-.82.68.66a66.574 66.574 0 0 0 12.428 9.463c-1.16 16.59-8.086 32.05-19.43 43.05ZM63.465 295.539v.343l.001.365c0 .67-.012 1.336-.03 2.002a70.962 70.962 0 0 1-8.072-13.913l-.189-.417.287-.355a68.69 68.69 0 0 1 12.327-11.922 68.24 68.24 0 0 0-4.324 23.897ZM20.834 374.977a61.605 61.605 0 0 0 8.684-10.566 68.07 68.07 0 0 0 50.436 96.068l.337.055.26-.217a65.303 65.303 0 0 1 14.243-9.041 46.648 46.648 0 0 0-7.543 8.89l-.726 1.09 1.308.063c1.129.055 2.25.083 3.332.083a68.728 68.728 0 0 0 18.816-2.609c27.805-7.91 57.663-9.263 88.744-4.02a97.273 97.273 0 0 0 16.128 1.345 95.707 95.707 0 0 0 63.856-24.351 96.232 96.232 0 0 1-86.883 55.054 97.272 97.272 0 0 1-16.129-1.345c-31.081-5.243-60.94-3.89-88.744 4.02a68.728 68.728 0 0 1-18.815 2.61c-1.083 0-2.204-.028-3.333-.083l-1.307-.063.725-1.09a46.648 46.648 0 0 1 7.543-8.89 65.303 65.303 0 0 0-14.243 9.04l-.26.217-.337-.055a68.102 68.102 0 0 1-36.092-116.205Z"/></g><circle cx="460.318" cy="185" r="5" fill="#fff"/><circle cx="834.318" cy="305" r="3" fill="#fff"/><circle cx="892.318" cy="170" r="3" fill="#fff"/><circle cx="355.318" cy="80" r="3" fill="#fff"/><circle cx="325.318" cy="201" r="3" fill="#fff"/><circle cx="179.318" cy="170" r="3" fill="#fff"/><circle cx="696.318" cy="195" r="3" fill="#fff"/><circle cx="1003.318" cy="98" r="3" fill="#fff"/><path fill="#3f3d56" d="M302.118 364.065c-3.8-7.035-4.33-16.255.336-22.749a36.838 36.838 0 0 0 14.675 20.6c2.772 1.887 6.051 3.697 7 6.914a8.235 8.235 0 0 1-.86 6.044 24.457 24.457 0 0 1-3.794 4.955l-.135.503c-6.878-4.076-13.422-9.232-17.222-16.267ZM884.118 563.065c-3.8-7.035-4.33-16.255.336-22.749a36.838 36.838 0 0 0 14.675 20.6c2.772 1.887 6.051 3.697 7 6.914a8.235 8.235 0 0 1-.86 6.044 24.457 24.457 0 0 1-3.794 4.955l-.135.503c-6.878-4.076-13.422-9.232-17.222-16.267ZM565.118 400.065c-3.8-7.035-4.33-16.255.336-22.749a36.838 36.838 0 0 0 14.675 20.6c2.772 1.887 6.051 3.697 7 6.914a8.235 8.235 0 0 1-.86 6.044 24.457 24.457 0 0 1-3.794 4.955l-.135.503c-6.878-4.076-13.422-9.232-17.222-16.267ZM261.118 516.065c-3.8-7.035-4.33-16.255.336-22.749a36.838 36.838 0 0 0 14.675 20.6c2.772 1.887 6.051 3.697 7 6.914a8.235 8.235 0 0 1-.86 6.044 24.457 24.457 0 0 1-3.794 4.955l-.135.503c-6.878-4.076-13.422-9.232-17.222-16.267ZM223.118 602.065c-3.8-7.035-4.33-16.255.336-22.749a36.838 36.838 0 0 0 14.675 20.6c2.772 1.887 6.051 3.697 7 6.914a8.235 8.235 0 0 1-.86 6.044 24.457 24.457 0 0 1-3.794 4.955l-.135.503c-6.878-4.076-13.422-9.232-17.222-16.267ZM843.318 68h11v589h-11z"/><rect width="72" height="72" x="813.318" y="20" fill="#ff6582" rx="36"/><path fill="#2f2e41" d="M391.802 374.64c0 11.478 12.515 21.679 23.993 21.679s17.571-10.201 17.571-21.679a20.782 20.782 0 0 0-41.564 0Z"/><path fill="#ffb8b8" d="m398.471 484.489 38.596-1.484 2.227-40.08H394.76l3.711 41.564z"/><path fill="#ffb6b6" d="M373.973 511.995a6.182 6.182 0 0 0-.365-9.473l7.007-20.823-11.038 2.917-4.962 19.327a6.216 6.216 0 0 0 9.358 8.052Z"/><circle cx="415.758" cy="381.625" r="14.698" fill="#ffb8b8"/><path fill="#2f2e41" d="m416.12 380.146-10.733-.285a1.504 1.504 0 0 1-1.28-.787l-3.588-6.655a1.498 1.498 0 0 1 .396-1.892l14.042-10.978a1.497 1.497 0 0 1 1.256-.28l11.342 2.584a1.499 1.499 0 0 1 1.107 1.043l4.441 15.295a1.5 1.5 0 0 1-1.514 1.916l-5.56-.278a1.507 1.507 0 0 1-1.347-1.028l-.23-.698a.173.173 0 0 0-.339.054 1.5 1.5 0 0 1-1.573 1.498l-1.841-.092a1.495 1.495 0 0 1-1.396-1.205l-.794-3.993a.173.173 0 0 0-.342.014l-.519 4.442a1.492 1.492 0 0 1-1.487 1.325ZM405.41 400.083l19.004.253 6.185 7.853 9.957 2.348 2.587 14.955c1.294 7.476-.08 12.21-3.88 18.777l-.456 12.918.503.914a2.094 2.094 0 0 1-.63 2.723 4.277 4.277 0 0 1 .117 2.815l-.246.81s-.707 5.663-40.832-.293a3.956 3.956 0 0 1-3.343-3.398 2.954 2.954 0 0 1-.547-3.404l.081-.164-.412-.485a3.177 3.177 0 0 1-.16-3.906l-5.767-41.253 11.912-3.71Z"/><path fill="#2f2e41" d="m392.328 415.495-4.757-3.949s-4.23 1.25-7.183 9.581-13.09 71.527-13.09 71.527l11.876-5.938 16.839-46.43Z"/><path fill="#ffb6b6" d="M497.979 482.776a6.182 6.182 0 0 1-7.092-6.292l-20.541-7.792 9.257-6.682 18.087 8.424a6.216 6.216 0 0 1 .289 12.342Z"/><path fill="#2f2e41" d="m435.04 415.134 3.224-5.274s4.407-.184 9.896 6.744c2.813 3.551 21.048 34.017 21.048 34.017l16.864 14.055-13.807 4.931-16.271-6.903-18.244-30.078Z"/><path fill="#ffb6b6" d="M435.555 666.81h9.184l4.369-35.425-13.555.001.002 35.424zM355.157 661.099l8.887 2.316 13.164-33.177-13.117-3.419-8.934 34.28z"/><path fill="#2f2e41" d="m433.277 662.28 14.518-.867v6.22l13.803 9.533a3.885 3.885 0 0 1-2.208 7.083h-17.284l-2.98-6.153-1.163 6.153h-6.517ZM353.29 655.93l14.268 2.824-1.57 6.019 10.953 12.706a3.885 3.885 0 0 1-3.923 6.297l-16.726-4.36-1.33-6.705-2.678 5.66-6.307-1.643ZM356.284 638.821l26.92-55.33L385.319 518c-5.827-10.821 11.332-34.693 11.332-34.693v-9.245l41.919 7.908a201.215 201.215 0 0 1 12.261 73.06l-1.689 89.52h.53a3.315 3.315 0 1 1 0 6.63h-16.576a3.315 3.315 0 1 1 0-6.63h.427l-11.9-113.885-13.836 56.2-33.438 51.743a3.307 3.307 0 0 1-.265 6.604h-16.576a3.312 3.312 0 0 1-1.223-6.39ZM355.918 376.798c6.193-6.06 10.092-14.027 15.222-21.01 5.13-6.984 12.355-13.383 21.01-13.771a13.038 13.038 0 0 1 8.167 2.129 8.305 8.305 0 0 1 3.604 7.367c.914-2.566 4.997-3.145 6.588-.933 1.59 2.212-.257 5.899-2.98 5.948l-.268-1.056a18.249 18.249 0 0 1-11.801 7.836 2.978 2.978 0 0 1-3.356-3.854c-9.354 1.854-6.384 19.3-11.945 27.048s-21.452 6.995-30.829 8.735c-9.055 1.68-17.859-3.347-25.7-8.178a38.272 38.272 0 0 0 32.288-10.26Z"/><path fill="#3f3d56" d="m705.849 587.406-28.217-12.45v-10.702l10.056-.056a7.47 7.47 0 0 0 7.044-5.107l7.064-21.193a7.47 7.47 0 0 0-7.086-9.831h-17.078v-9.96h21.44a7.47 7.47 0 0 0 7.28-5.795l4.865-21.163a7.47 7.47 0 0 0-7.28-9.143h-26.305v-2.49a4.98 4.98 0 0 0-9.96 0v2.49H491.317v-2.49a4.98 4.98 0 0 0-9.96 0v2.49h-20.91a7.47 7.47 0 0 0-7.28 9.143l4.866 21.163a7.47 7.47 0 0 0 7.279 5.796h16.046v9.959h-11.685a7.47 7.47 0 0 0-7.109 9.76l7.21 22.377a7.47 7.47 0 0 0 7.152 5.178l4.432-.025v9.6l-22.823 12.449a7.47 7.47 0 0 0-7.47 7.469 7.47 7.47 0 0 0 7.47 7.469h22.823v54.774a4.98 4.98 0 0 0 9.959 0v-54.774h176.357v54.774a4.98 4.98 0 0 0 9.959 0v-54.774h28.217a7.47 7.47 0 0 0 7.47-7.47 7.47 7.47 0 0 0-7.47-7.468Zm-214.533-69.298h176.357v9.959H491.316Zm0 56.849V565.3l176.357-.99v10.646Z"/></svg>